<svg version="1.2" xmlns="http://www.w3.org/2000/svg" viewBox="0 0 1080 1080" width="1080" height="1080">
	<title>icon (1)</title>
	<style>
		.s0 { fill: #ffffff } 
		.s1 { fill: #000000 } 
	</style>
	<g id="20760ef5-5c7b-4826-a6ce-f4b1dc934a58">
		<path fill-rule="evenodd" class="s0" d="m0 0h1080v1080h-1080z"/>
	</g>
	<g id="de28c6b7-1290-4da9-9f0a-f5cff5c14837">
	</g>
	<g>
		<g>
			<g>
				<path class="s1" d="m84 418.2c-1.9 1.1-2 5.2-2 60.2 0 57.2 0.1 59.2 2.1 60.3 3.1 1.6 115.5 1.6 118.6 0 2-1.1 2.1-3.1 2.1-60.3 0-57.2-0.1-59.1-2.1-60.3-3.1-1.5-116-1.4-118.7 0.1z"/>
			</g>
			<g>
				<path class="s1" d="m877.9 418.2c-1.9 1.1-2.1 5.2-2.1 60.2 0 57.2 0.2 59.2 2.2 60.3 2.9 1.4 113.7 1.6 117.7 0l2.9-1.1v-59.1c0-57.3-0.1-59.2-2.1-60.4-3-1.5-115.9-1.4-118.6 0.1z"/>
			</g>
			<g>
				<path class="s1" d="m297.9 460.9c-1.8 1-2.1 3.1-2.1 19.7v18.5l2.9 1.1c1.8 0.7 55.7 1.1 141.5 1.1 76.2 0 139.1 0.4 139.7 0.7 0.5 0.3 1 26.1 1 59.5 0 44.3 0.3 59.1 1.3 60.2 0.9 0.9 7.1 1.3 20.3 1.3h18.9v18.9c0 13.2 0.5 19.4 1.4 20.3 1.9 1.9 118.2 1.9 120.1 0 0.9-0.9 1.3-7.1 1.3-20.3v-18.9h19c13.2 0 19.3-0.4 20.3-1.3 1-1.1 1.3-20.6 1.3-80.6v-79.2l-2.9-1.1c-4.1-1.6-481.4-1.5-484 0.1zm363.5 41.7c0.5 0.5 0.8 18 0.7 38.7-0.1 32.7 0.1 37.9 1.7 39.3 1.5 1.5 4.8 1.8 18.6 1.8 9.6 0 17.9-0.5 19.1-1.1 2.1-1.1 2.2-2.7 2.1-39.4-0.1-21 0.2-38.7 0.6-39.3 0.8-1.4 35-1.8 38.2-0.6 1.6 0.6 1.8 7 1.8 60.8v60.2h-61.4-61.4v-59c0-32.5 0.4-59.9 0.7-60.9 0.6-1.5 3.4-1.8 19.6-1.8 12.2 0 19.3 0.5 19.7 1.3z"/>
			</g>
		</g>
	</g>
</svg>