<?xml version="1.0" encoding="UTF-8" standalone="no" ?>
<!DOCTYPE svg PUBLIC "-//W3C//DTD SVG 1.1//EN" "http://www.w3.org/Graphics/SVG/1.1/DTD/svg11.dtd">
<svg xmlns="http://www.w3.org/2000/svg" xmlns:xlink="http://www.w3.org/1999/xlink" version="1.1" width="1080" height="1080" viewBox="0 0 1080 1080" xml:space="preserve">
<desc>Created with Fabric.js 5.2.4</desc>
<defs>
</defs>
<g transform="matrix(1 0 0 1 540 540)" id="20760ef5-5c7b-4826-a6ce-f4b1dc934a58"  >
<rect style="stroke: none; stroke-width: 1; stroke-dasharray: none; stroke-linecap: butt; stroke-dashoffset: 0; stroke-linejoin: miter; stroke-miterlimit: 4; fill: rgb(255,255,255); fill-rule: nonzero; opacity: 1;" vector-effect="non-scaling-stroke"  x="-540" y="-540" rx="0" ry="0" width="1080" height="1080" />
</g>
<g transform="matrix(1 0 0 1 540 540)" id="de28c6b7-1290-4da9-9f0a-f5cff5c14837"  >
</g>
<g transform="matrix(1 0 0 1 540 540)"  >
<g style="" vector-effect="non-scaling-stroke"   >
		<g transform="matrix(0.13 0 0 -0.13 -458 -72.02)"  >
<path style="stroke: none; stroke-width: 1; stroke-dasharray: none; stroke-linecap: butt; stroke-dashoffset: 0; stroke-linejoin: miter; stroke-miterlimit: 4; fill: rgb(0,0,0); fill-rule: nonzero; opacity: 1;" vector-effect="non-scaling-stroke"  transform=" translate(-1925, -5784.76)" d="M 1398 6319 C 1381 6310 1380 6273 1380 5785 C 1380 5277 1381 5260 1399 5250 C 1426 5236 2424 5236 2451 5250 C 2469 5260 2470 5277 2470 5785 C 2470 6293 2469 6310 2451 6320 C 2424 6334 1422 6333 1398 6319 z" stroke-linecap="round" />
</g>
		<g transform="matrix(0.13 0 0 -0.13 458 -72.04)"  >
<path style="stroke: none; stroke-width: 1; stroke-dasharray: none; stroke-linecap: butt; stroke-dashoffset: 0; stroke-linejoin: miter; stroke-miterlimit: 4; fill: rgb(0,0,0); fill-rule: nonzero; opacity: 1;" vector-effect="non-scaling-stroke"  transform=" translate(-8795, -5784.94)" d="M 8268 6319 C 8251 6310 8250 6273 8250 5785 C 8250 5277 8251 5260 8269 5250 C 8295 5237 9278 5236 9314 5250 L 9340 5260 L 9340 5784 C 9340 6293 9339 6310 9321 6320 C 9294 6334 8292 6333 8268 6319 z" stroke-linecap="round" />
</g>
		<g transform="matrix(0.13 0 0 -0.13 0 24)"  >
<path style="stroke: none; stroke-width: 1; stroke-dasharray: none; stroke-linecap: butt; stroke-dashoffset: 0; stroke-linejoin: miter; stroke-miterlimit: 4; fill: rgb(0,0,0); fill-rule: nonzero; opacity: 1;" vector-effect="non-scaling-stroke"  transform=" translate(-5360, -5064.63)" d="M 3208 5959 C 3192 5950 3190 5931 3190 5784 L 3190 5620 L 3215 5610 C 3231 5604 3710 5600 4471 5600 C 5148 5600 5706 5597 5711 5594 C 5716 5591 5720 5362 5720 5066 C 5720 4673 5723 4541 5732 4532 C 5740 4524 5795 4520 5912 4520 L 6080 4520 L 6080 4352 C 6080 4235 6084 4180 6092 4172 C 6109 4155 7141 4155 7158 4172 C 7166 4180 7170 4235 7170 4352 L 7170 4520 L 7338 4520 C 7455 4520 7510 4524 7518 4532 C 7527 4541 7530 4714 7530 5247 L 7530 5950 L 7504 5960 C 7468 5974 3231 5973 3208 5959 z M 6435 5589 C 6439 5584 6442 5429 6441 5245 C 6440 4955 6442 4909 6456 4896 C 6469 4883 6499 4880 6621 4880 C 6706 4880 6780 4885 6791 4890 C 6809 4900 6810 4914 6809 5240 C 6808 5426 6811 5583 6815 5589 C 6822 5601 7125 5605 7154 5594 C 7168 5589 7170 5532 7170 5054 L 7170 4520 L 6625 4520 L 6080 4520 L 6080 5044 C 6080 5332 6083 5575 6086 5584 C 6091 5598 6116 5600 6260 5600 C 6368 5600 6431 5596 6435 5589 z" stroke-linecap="round" />
</g>
</g>
</g>
</svg>